<svg width="22" height="22" viewBox="0 0 22 22" fill="none" xmlns="http://www.w3.org/2000/svg">
<path d="M11 16C13.7614 16 16 13.7614 16 11C16 8.23858 13.7614 6 11 6C8.23858 6 6 8.23858 6 11C6 13.7614 8.23858 16 11 16Z" fill="url(#paint0_linear_1_222)"/>
<path d="M15.699 1.60301L14.524 4.44001C14.141 5.36401 12.755 4.79001 13.138 3.86601L14.313 1.02901C14.696 0.105011 16.082 0.679011 15.699 1.60301ZM8.853 18.13L7.678 20.967C7.295 21.891 5.909 21.317 6.292 20.393L7.467 17.556C7.85 16.632 9.236 17.206 8.853 18.13V18.13ZM20.965 7.68101L18.128 8.85601C17.204 9.23901 16.63 7.85301 17.554 7.47001L20.391 6.29501C21.315 5.91201 21.889 7.29801 20.965 7.68101V7.68101ZM4.438 14.527L1.601 15.702C0.676997 16.085 0.102996 14.699 1.027 14.316L3.864 13.141C4.788 12.758 5.362 14.144 4.438 14.527V14.527ZM20.391 15.703L17.554 14.528C16.63 14.145 17.204 12.759 18.128 13.142L20.965 14.317C21.889 14.7 21.315 16.086 20.391 15.703ZM3.864 8.85701L1.027 7.68201C0.102996 7.29901 0.676997 5.91301 1.601 6.29601L4.438 7.47101C5.362 7.85401 4.788 9.24001 3.864 8.85701V8.85701ZM7.677 1.02801L8.852 3.86501C9.235 4.78901 7.849 5.36301 7.466 4.43901L6.291 1.60201C5.908 0.678011 7.294 0.104011 7.677 1.02801V1.02801ZM14.523 17.555L15.698 20.392C16.081 21.316 14.695 21.89 14.312 20.966L13.137 18.129C12.754 17.205 14.14 16.631 14.523 17.555V17.555Z" fill="#FFB300"/>
<defs>
<linearGradient id="paint0_linear_1_222" x1="11" y1="6" x2="11" y2="15.8667" gradientUnits="userSpaceOnUse">
<stop stop-color="#FFC227"/>
<stop offset="1" stop-color="#FFB300"/>
</linearGradient>
</defs>
</svg>
