<svg width="20" height="16" viewBox="0 0 20 16" fill="none" xmlns="http://www.w3.org/2000/svg">
<path opacity="0.32" d="M17 11C18.657 11 20 9.657 20 8C20 6.343 18.657 5 17 5H16.969C16.989 4.836 17 4.669 17 4.5C17 2.291 15.209 0.5 13 0.5C11.25 0.5 9.762 1.624 9.22 3.189C8.835 3.066 8.426 3 8 3C5.791 3 4 4.791 4 7C4 9.209 5.791 11 8 11C8.345 11 8.68 10.956 9 10.874V11H17Z" fill="#73A5E6"/>
<path d="M4 16C1.791 16 0 14.209 0 12C0 9.791 1.791 8 4 8C4.417 8 4.818 8.064 5.196 8.182C5.759 6.34 7.473 5 9.5 5C11.985 5 14 7.015 14 9.5C14 9.735 13.982 9.965 13.947 10.19C14.275 10.067 14.629 10 15 10C16.657 10 18 11.343 18 13C18 14.657 16.657 16 15 16H4Z" fill="url(#paint0_linear_1_481)"/>
<path d="M5 9.5C5 11.985 7.015 14 9.5 14C11.751 14 13.615 12.348 13.947 10.19C14.275 10.067 14.629 10 15 10C16.657 10 18 11.343 18 13C18 14.657 16.657 16 15 16H4C1.791 16 0 14.209 0 12C0 9.791 1.791 8 4 8C4.417 8 4.818 8.064 5.196 8.182C5.068 8.599 5 9.041 5 9.5Z" fill="url(#paint1_radial_1_481)"/>
<defs>
<linearGradient id="paint0_linear_1_481" x1="9" y1="5" x2="9" y2="16" gradientUnits="userSpaceOnUse">
<stop stop-color="#9FC7FF"/>
<stop offset="1" stop-color="#9BC1F5"/>
</linearGradient>
<radialGradient id="paint1_radial_1_481" cx="0" cy="0" r="1" gradientUnits="userSpaceOnUse" gradientTransform="translate(6.97197 -14.3483) rotate(-90) scale(10.4787 3.34853)">
<stop stop-color="#486DA8" stop-opacity="0.4"/>
<stop offset="1" stop-color="#486DA8" stop-opacity="0"/>
</radialGradient>
</defs>
</svg>
