<svg width="22" height="25" viewBox="0 0 22 25" fill="none" xmlns="http://www.w3.org/2000/svg">
<path d="M14 11.8915C16.2091 11.8915 18 10.1006 18 7.89148C18 5.68234 16.2091 3.89148 14 3.89148C11.7909 3.89148 10 5.68234 10 7.89148C10 10.1006 11.7909 11.8915 14 11.8915Z" fill="url(#paint0_linear_1_485)"/>
<path d="M13.48 0.621472L13.74 2.09847C13.914 3.08347 12.436 3.34347 12.263 2.35847L12.003 0.881472C11.829 -0.103528 13.307 -0.363528 13.48 0.621472V0.621472ZM18.773 2.38247L17.913 3.61147C17.339 4.43047 16.111 3.57047 16.684 2.75147L17.544 1.52247C18.118 0.703472 19.346 1.56347 18.773 2.38247ZM8.492 3.11847L9.721 3.97847C10.54 4.55247 9.68 5.78047 8.861 5.20747L7.632 4.34747C6.813 3.77347 7.673 2.54547 8.492 3.11847V3.11847ZM19.141 10.5745L20.37 11.4345C21.189 12.0085 20.329 13.2365 19.51 12.6635L18.281 11.8035C17.462 11.2295 18.322 10.0015 19.141 10.5745ZM21.271 7.37047L19.794 7.63047C18.809 7.80447 18.549 6.32647 19.534 6.15347L21.011 5.89347C21.996 5.71947 22.256 7.19747 21.271 7.37047Z" fill="#FFB300"/>
<path d="M4 16.8915C1.791 16.8915 0 15.1005 0 12.8915C0 10.6825 1.791 8.89148 4 8.89148C4.417 8.89148 4.818 8.95548 5.196 9.07348C5.759 7.23148 7.473 5.89148 9.5 5.89148C11.985 5.89148 14 7.90648 14 10.3915C14 10.6265 13.982 10.8565 13.947 11.0815C14.275 10.9585 14.629 10.8915 15 10.8915C16.657 10.8915 18 12.2345 18 13.8915C18 15.5485 16.657 16.8915 15 16.8915H4Z" fill="url(#paint1_linear_1_485)"/>
<path d="M5 10.3915C5 12.8765 7.015 14.8915 9.5 14.8915C11.751 14.8915 13.615 13.2395 13.947 11.0815C14.275 10.9585 14.629 10.8915 15 10.8915C16.657 10.8915 18 12.2345 18 13.8915C18 15.5485 16.657 16.8915 15 16.8915H4C1.791 16.8915 0 15.1005 0 12.8915C0 10.6825 1.791 8.89148 4 8.89148C4.417 8.89148 4.818 8.95548 5.196 9.07348C5.068 9.49048 5 9.93248 5 10.3915Z" fill="url(#paint2_radial_1_485)"/>
<path d="M0.189669 19.7914C0.434636 19.9813 1.69447 20.9412 2.62935 20.9412C3.17928 20.9412 3.60422 20.6163 3.97417 20.3263C4.25913 20.1063 4.5241 19.9013 4.76407 19.9013C4.97404 19.9013 5.22401 20.0963 5.49397 20.3063C5.87892 20.6063 6.31386 20.9462 6.89379 20.9462C7.44372 20.9462 7.86866 20.6213 8.23861 20.3313C8.52357 20.1113 8.78854 19.9063 9.02851 19.9063C9.23848 19.9063 9.49345 20.1063 9.76341 20.3213C10.1384 20.6163 10.5633 20.9512 11.1182 20.9512C11.6982 20.9512 12.1331 20.6113 12.518 20.3113C12.788 20.1013 13.043 19.9063 13.248 19.9063C13.4879 19.9063 13.7579 20.1113 14.0379 20.3313C14.4128 20.6163 14.8327 20.9462 15.3827 20.9462C16.3176 20.9462 17.5774 19.9863 17.8174 19.7864C18.0323 19.6164 18.0673 19.3014 17.8973 19.0865C17.7274 18.8715 17.4124 18.8365 17.1974 19.0065C16.7075 19.3964 15.8176 19.9413 15.3777 19.9413C15.1677 19.9413 14.9177 19.7464 14.6478 19.5364C14.2628 19.2364 13.8279 18.8965 13.248 18.8965C12.698 18.8965 12.2731 19.2214 11.9031 19.5114C11.6182 19.7314 11.3532 19.9363 11.1132 19.9363C10.9033 19.9363 10.6483 19.7364 10.3783 19.5214C10.0034 19.2264 9.57844 18.8915 9.02351 18.8915C8.44358 18.8915 8.00864 19.2314 7.62369 19.5314C7.35373 19.7414 7.09876 19.9363 6.89379 19.9363C6.65382 19.9363 6.38386 19.7314 6.10389 19.5114C5.72894 19.2264 5.309 18.8965 4.75907 18.8965C4.17914 18.8965 3.7442 19.2364 3.35925 19.5364C3.08929 19.7464 2.83432 19.9413 2.62935 19.9413C2.19441 19.9413 1.30452 19.3964 0.809587 19.0065C0.594616 18.8365 0.279657 18.8765 0.109679 19.0915C-0.0652979 19.3064 -0.0253032 19.6214 0.189669 19.7914Z" fill="#6C819E"/>
<path d="M17.1974 22.136C16.7075 22.526 15.8176 23.0709 15.3777 23.0709C15.1677 23.0709 14.9177 22.8759 14.6478 22.666C14.2628 22.366 13.8279 22.0261 13.248 22.0261C12.698 22.0261 12.2731 22.351 11.9031 22.641C11.6182 22.8609 11.3532 23.0659 11.1132 23.0659C10.9033 23.0659 10.6483 22.8659 10.3783 22.651C10.0034 22.356 9.57844 22.0211 9.02351 22.0211C8.44358 22.0211 8.00864 22.361 7.62369 22.661C7.35373 22.8709 7.09876 23.0659 6.89379 23.0659C6.65382 23.0659 6.38386 22.8609 6.10389 22.641C5.72894 22.356 5.309 22.0261 4.75907 22.0261C4.17914 22.0261 3.7442 22.366 3.35925 22.666C3.08929 22.8759 2.83432 23.0709 2.62935 23.0709C2.19441 23.0709 1.30452 22.526 0.809587 22.136C0.594616 21.9661 0.279657 22.0061 0.109679 22.221C-0.0652979 22.436 -0.0253032 22.751 0.189669 22.9209C0.434636 23.1109 1.69447 24.0708 2.62935 24.0708C3.17928 24.0708 3.60422 23.7458 3.97417 23.4559C4.25913 23.2359 4.5241 23.0309 4.76407 23.0309C4.97404 23.0309 5.22401 23.2259 5.49397 23.4359C5.87892 23.7358 6.31386 24.0758 6.89379 24.0758C7.44372 24.0758 7.86866 23.7508 8.23861 23.4609C8.52357 23.2409 8.78854 23.0359 9.02851 23.0359C9.23848 23.0359 9.49345 23.2359 9.76341 23.4509C10.1384 23.7458 10.5633 24.0808 11.1182 24.0808C11.6982 24.0808 12.1331 23.7408 12.518 23.4409C12.788 23.2309 13.043 23.0359 13.248 23.0359C13.4879 23.0359 13.7579 23.2409 14.0379 23.4609C14.4128 23.7458 14.8327 24.0758 15.3827 24.0758C16.3176 24.0758 17.5774 23.1159 17.8174 22.9159C18.0323 22.746 18.0673 22.431 17.8973 22.216C17.7274 22.0011 17.4124 21.9661 17.1974 22.136Z" fill="#6C819E"/>
<defs>
<linearGradient id="paint0_linear_1_485" x1="18" y1="3.89148" x2="12.3916" y2="9.42764" gradientUnits="userSpaceOnUse">
<stop stop-color="#FFB301"/>
<stop offset="1" stop-color="#FFC533"/>
</linearGradient>
<linearGradient id="paint1_linear_1_485" x1="9" y1="5.89148" x2="9" y2="16.8915" gradientUnits="userSpaceOnUse">
<stop stop-color="#9FC7FF"/>
<stop offset="1" stop-color="#9BC1F5"/>
</linearGradient>
<radialGradient id="paint2_radial_1_485" cx="0" cy="0" r="1" gradientUnits="userSpaceOnUse" gradientTransform="translate(6.97197 -13.4568) rotate(-90) scale(10.4787 3.34853)">
<stop stop-color="#486DA8" stop-opacity="0.4"/>
<stop offset="1" stop-color="#486DA8" stop-opacity="0"/>
</radialGradient>
</defs>
</svg>
