<svg width="22" height="24" viewBox="0 0 22 24" fill="none" xmlns="http://www.w3.org/2000/svg">
<path d="M6.50803 0.258484C8.19203 0.969484 9.37503 2.63648 9.37503 4.57948C9.37503 7.16848 7.27603 9.26748 4.68703 9.26748C2.74403 9.26748 1.07703 8.08548 0.366028 6.40048C0.926028 6.63648 1.54103 6.76748 2.18703 6.76748C4.77603 6.76748 6.87503 4.66848 6.87503 2.07948C6.87503 1.43348 6.74403 0.818484 6.50803 0.258484V0.258484Z" fill="url(#paint0_linear_1_492)"/>
<path d="M7.00003 14.8915C4.79103 14.8915 3.00003 13.1005 3.00003 10.8915C3.00003 8.68248 4.79103 6.89148 7.00003 6.89148C7.41703 6.89148 7.81803 6.95548 8.19603 7.07348C8.75903 5.23148 10.473 3.89148 12.5 3.89148C14.985 3.89148 17 5.90648 17 8.39148C17 8.62648 16.982 8.85648 16.947 9.08148C17.275 8.95848 17.629 8.89148 18 8.89148C19.657 8.89148 21 10.2345 21 11.8915C21 13.5485 19.657 14.8915 18 14.8915H7.00003Z" fill="url(#paint1_linear_1_492)"/>
<path d="M3.18967 18.7914C3.43464 18.9813 4.69447 19.9412 5.62935 19.9412C6.17928 19.9412 6.60422 19.6163 6.97417 19.3263C7.25913 19.1063 7.5241 18.9013 7.76407 18.9013C7.97404 18.9013 8.22401 19.0963 8.49397 19.3063C8.87892 19.6063 9.31386 19.9462 9.89379 19.9462C10.4437 19.9462 10.8687 19.6213 11.2386 19.3313C11.5236 19.1113 11.7885 18.9063 12.0285 18.9063C12.2385 18.9063 12.4934 19.1063 12.7634 19.3213C13.1384 19.6163 13.5633 19.9512 14.1182 19.9512C14.6982 19.9512 15.1331 19.6113 15.518 19.3113C15.788 19.1013 16.043 18.9063 16.248 18.9063C16.4879 18.9063 16.7579 19.1113 17.0379 19.3313C17.4128 19.6163 17.8327 19.9462 18.3827 19.9462C19.3176 19.9462 20.5774 18.9863 20.8174 18.7864C21.0323 18.6164 21.0673 18.3014 20.8973 18.0865C20.7274 17.8715 20.4124 17.8365 20.1974 18.0065C19.7075 18.3964 18.8176 18.9413 18.3777 18.9413C18.1677 18.9413 17.9177 18.7464 17.6478 18.5364C17.2628 18.2364 16.8279 17.8965 16.248 17.8965C15.698 17.8965 15.2731 18.2214 14.9031 18.5114C14.6182 18.7314 14.3532 18.9363 14.1132 18.9363C13.9033 18.9363 13.6483 18.7364 13.3783 18.5214C13.0034 18.2264 12.5784 17.8915 12.0235 17.8915C11.4436 17.8915 11.0086 18.2314 10.6237 18.5314C10.3537 18.7414 10.0988 18.9363 9.89379 18.9363C9.65382 18.9363 9.38386 18.7314 9.10389 18.5114C8.72894 18.2264 8.309 17.8965 7.75907 17.8965C7.17914 17.8965 6.7442 18.2364 6.35925 18.5364C6.08929 18.7464 5.83432 18.9413 5.62935 18.9413C5.19441 18.9413 4.30452 18.3964 3.80959 18.0065C3.59462 17.8365 3.27966 17.8765 3.10968 18.0915C2.9347 18.3064 2.9747 18.6214 3.18967 18.7914Z" fill="#6C819E"/>
<path d="M20.1974 21.136C19.7075 21.526 18.8176 22.0709 18.3777 22.0709C18.1677 22.0709 17.9177 21.8759 17.6478 21.666C17.2628 21.366 16.8279 21.0261 16.248 21.0261C15.698 21.0261 15.2731 21.351 14.9031 21.641C14.6182 21.8609 14.3532 22.0659 14.1132 22.0659C13.9033 22.0659 13.6483 21.8659 13.3783 21.651C13.0034 21.356 12.5784 21.0211 12.0235 21.0211C11.4436 21.0211 11.0086 21.361 10.6237 21.661C10.3537 21.8709 10.0988 22.0659 9.89379 22.0659C9.65382 22.0659 9.38386 21.8609 9.10389 21.641C8.72894 21.356 8.309 21.0261 7.75907 21.0261C7.17914 21.0261 6.7442 21.366 6.35925 21.666C6.08929 21.8759 5.83432 22.0709 5.62935 22.0709C5.19441 22.0709 4.30452 21.526 3.80959 21.136C3.59462 20.9661 3.27966 21.0061 3.10968 21.221C2.9347 21.436 2.9747 21.751 3.18967 21.9209C3.43464 22.1109 4.69447 23.0708 5.62935 23.0708C6.17928 23.0708 6.60422 22.7458 6.97417 22.4559C7.25913 22.2359 7.5241 22.0309 7.76407 22.0309C7.97404 22.0309 8.22401 22.2259 8.49397 22.4359C8.87892 22.7358 9.31386 23.0758 9.89379 23.0758C10.4437 23.0758 10.8687 22.7508 11.2386 22.4609C11.5236 22.2409 11.7885 22.0359 12.0285 22.0359C12.2385 22.0359 12.4934 22.2359 12.7634 22.4509C13.1384 22.7458 13.5633 23.0808 14.1182 23.0808C14.6982 23.0808 15.1331 22.7408 15.518 22.4409C15.788 22.2309 16.043 22.0359 16.248 22.0359C16.4879 22.0359 16.7579 22.2409 17.0379 22.4609C17.4128 22.7458 17.8327 23.0758 18.3827 23.0758C19.3176 23.0758 20.5774 22.1159 20.8174 21.9159C21.0323 21.746 21.0673 21.431 20.8973 21.216C20.7274 21.0011 20.4124 20.9661 20.1974 21.136Z" fill="#6C819E"/>
<path d="M8.00003 8.39148C8.00003 10.8765 10.015 12.8915 12.5 12.8915C14.751 12.8915 16.615 11.2395 16.947 9.08148C17.275 8.95848 17.629 8.89148 18 8.89148C19.657 8.89148 21 10.2345 21 11.8915C21 13.5485 19.657 14.8915 18 14.8915H7.00003C4.79103 14.8915 3.00003 13.1005 3.00003 10.8915C3.00003 8.68248 4.79103 6.89148 7.00003 6.89148C7.41703 6.89148 7.81803 6.95548 8.19603 7.07348C8.06803 7.49048 8.00003 7.93248 8.00003 8.39148Z" fill="url(#paint2_radial_1_492)"/>
<defs>
<linearGradient id="paint0_linear_1_492" x1="4.87053" y1="4.76298" x2="7.16296" y2="7.06758" gradientUnits="userSpaceOnUse">
<stop stop-color="#FFB301"/>
<stop offset="1" stop-color="#FFC533"/>
</linearGradient>
<linearGradient id="paint1_linear_1_492" x1="12" y1="3.89148" x2="12" y2="14.8915" gradientUnits="userSpaceOnUse">
<stop stop-color="#9FC7FF"/>
<stop offset="1" stop-color="#9BC1F5"/>
</linearGradient>
<radialGradient id="paint2_radial_1_492" cx="0" cy="0" r="1" gradientUnits="userSpaceOnUse" gradientTransform="translate(7.253 -16.4568) rotate(-90) scale(10.4787 3.34853)">
<stop stop-color="#486DA8" stop-opacity="0.4"/>
<stop offset="1" stop-color="#486DA8" stop-opacity="0"/>
</radialGradient>
</defs>
</svg>
