<svg width="21" height="22" viewBox="0 0 21 22" fill="none" xmlns="http://www.w3.org/2000/svg">
<path d="M6.50803 0.258484C8.19203 0.969484 9.37503 2.63648 9.37503 4.57948C9.37503 7.16848 7.27603 9.26748 4.68703 9.26748C2.74403 9.26748 1.07703 8.08548 0.366028 6.40048C0.926028 6.63648 1.54103 6.76748 2.18703 6.76748C4.77603 6.76748 6.87503 4.66848 6.87503 2.07948C6.87503 1.43348 6.74403 0.818484 6.50803 0.258484V0.258484Z" fill="url(#paint0_linear_1_623)"/>
<path d="M7.00003 14.8915C4.79103 14.8915 3.00003 13.1005 3.00003 10.8915C3.00003 8.68248 4.79103 6.89148 7.00003 6.89148C7.41703 6.89148 7.81803 6.95548 8.19603 7.07348C8.75903 5.23148 10.473 3.89148 12.5 3.89148C14.985 3.89148 17 5.90648 17 8.39148C17 8.62648 16.982 8.85648 16.947 9.08148C17.275 8.95848 17.629 8.89148 18 8.89148C19.657 8.89148 21 10.2345 21 11.8915C21 13.5485 19.657 14.8915 18 14.8915H7.00003Z" fill="url(#paint1_linear_1_623)"/>
<path d="M14.975 13.9627L11.375 20.7627C11.275 20.9127 11.125 21.0127 10.925 21.0127C10.875 21.0127 10.825 21.0127 10.775 21.0127C10.525 20.9627 10.375 20.7127 10.425 20.4627L10.975 16.0127H8.525C8.325 16.0127 8.175 15.9127 8.075 15.7627C7.975 15.6127 7.975 15.4127 8.075 15.2627L11.075 10.2627C11.175 10.0627 11.425 9.96274 11.625 10.0127C11.825 10.0627 11.975 10.2627 11.975 10.5127V13.2127H14.475C14.625 13.2127 14.825 13.3127 14.925 13.4627C15.025 13.6127 15.025 13.8127 14.975 13.9627Z" fill="#FFC10A"/>
<defs>
<linearGradient id="paint0_linear_1_623" x1="4.87053" y1="4.76298" x2="7.16296" y2="7.06758" gradientUnits="userSpaceOnUse">
<stop stop-color="#FFB301"/>
<stop offset="1" stop-color="#FFC533"/>
</linearGradient>
<linearGradient id="paint1_linear_1_623" x1="12" y1="3.89148" x2="12" y2="14.8915" gradientUnits="userSpaceOnUse">
<stop stop-color="#9FC7FF"/>
<stop offset="1" stop-color="#9BC1F5"/>
</linearGradient>
</defs>
</svg>
