<svg width="18" height="18" viewBox="0 0 18 18" fill="none" xmlns="http://www.w3.org/2000/svg">
<path d="M5.109 13.463L4.059 15.962C3.899 16.344 4.078 16.784 4.46 16.944C4.842 17.104 5.282 16.925 5.442 16.543L6.492 14.044C6.652 13.662 6.473 13.222 6.091 13.062C5.709 12.902 5.269 13.081 5.109 13.463V13.463ZM10.109 12.463L9.059 14.962C8.899 15.344 9.078 15.784 9.46 15.944C9.842 16.104 10.282 15.925 10.442 15.543L11.492 13.044C11.652 12.662 11.473 12.222 11.091 12.062C10.709 11.902 10.269 12.081 10.109 12.463Z" fill="#66AFEB"/>
<path d="M4 11C1.791 11 0 9.209 0 7C0 4.791 1.791 3 4 3C4.417 3 4.818 3.064 5.196 3.182C5.759 1.34 7.473 0 9.5 0C11.985 0 14 2.015 14 4.5C14 4.735 13.982 4.965 13.947 5.19C14.275 5.067 14.629 5 15 5C16.657 5 18 6.343 18 8C18 9.657 16.657 11 15 11H4Z" fill="url(#paint0_linear_1_538)"/>
<path d="M5 4.5C5 6.985 7.015 9 9.5 9C11.751 9 13.615 7.348 13.947 5.19C14.275 5.067 14.629 5 15 5C16.657 5 18 6.343 18 8C18 9.657 16.657 11 15 11H4C1.791 11 0 9.209 0 7C0 4.791 1.791 3 4 3C4.417 3 4.818 3.064 5.196 3.182C5.068 3.599 5 4.041 5 4.5Z" fill="url(#paint1_radial_1_538)"/>
<defs>
<linearGradient id="paint0_linear_1_538" x1="9" y1="0" x2="9" y2="11" gradientUnits="userSpaceOnUse">
<stop stop-color="#9FC7FF"/>
<stop offset="1" stop-color="#9BC1F5"/>
</linearGradient>
<radialGradient id="paint1_radial_1_538" cx="0" cy="0" r="1" gradientUnits="userSpaceOnUse" gradientTransform="translate(2.37697 -15.3483) rotate(-90) scale(10.4787 3.34853)">
<stop stop-color="#486DA8" stop-opacity="0.4"/>
<stop offset="1" stop-color="#486DA8" stop-opacity="0"/>
</radialGradient>
</defs>
</svg>
