<svg width="22" height="24" viewBox="0 0 22 24" fill="none" xmlns="http://www.w3.org/2000/svg">
<path d="M14 11.8915C16.2091 11.8915 18 10.1006 18 7.89147C18 5.68233 16.2091 3.89147 14 3.89147C11.7909 3.89147 10 5.68233 10 7.89147C10 10.1006 11.7909 11.8915 14 11.8915Z" fill="url(#paint0_linear_1_622)"/>
<path d="M13.48 0.621472L13.74 2.09847C13.914 3.08347 12.436 3.34347 12.263 2.35847L12.003 0.881472C11.829 -0.103528 13.307 -0.363528 13.48 0.621472V0.621472ZM18.773 2.38247L17.913 3.61147C17.339 4.43047 16.111 3.57047 16.684 2.75147L17.544 1.52247C18.118 0.703472 19.346 1.56347 18.773 2.38247ZM8.492 3.11847L9.721 3.97847C10.54 4.55247 9.68 5.78047 8.861 5.20747L7.632 4.34747C6.813 3.77347 7.673 2.54547 8.492 3.11847V3.11847ZM19.141 10.5745L20.37 11.4345C21.189 12.0085 20.329 13.2365 19.51 12.6635L18.281 11.8035C17.462 11.2295 18.322 10.0015 19.141 10.5745ZM21.271 7.37047L19.794 7.63047C18.809 7.80447 18.549 6.32647 19.534 6.15347L21.011 5.89347C21.996 5.71947 22.256 7.19747 21.271 7.37047Z" fill="#FFB300"/>
<path d="M4 16.8915C1.791 16.8915 0 15.1005 0 12.8915C0 10.6825 1.791 8.89147 4 8.89147C4.417 8.89147 4.818 8.95547 5.196 9.07347C5.759 7.23147 7.473 5.89147 9.5 5.89147C11.985 5.89147 14 7.90647 14 10.3915C14 10.6265 13.982 10.8565 13.947 11.0815C14.275 10.9585 14.629 10.8915 15 10.8915C16.657 10.8915 18 12.2345 18 13.8915C18 15.5485 16.657 16.8915 15 16.8915H4Z" fill="url(#paint1_linear_1_622)"/>
<path d="M5 10.3915C5 12.8765 7.015 14.8915 9.5 14.8915C11.751 14.8915 13.615 13.2395 13.947 11.0815C14.275 10.9585 14.629 10.8915 15 10.8915C16.657 10.8915 18 12.2345 18 13.8915C18 15.5485 16.657 16.8915 15 16.8915H4C1.791 16.8915 0 15.1005 0 12.8915C0 10.6825 1.791 8.89147 4 8.89147C4.417 8.89147 4.818 8.95547 5.196 9.07347C5.068 9.49047 5 9.93247 5 10.3915Z" fill="url(#paint2_radial_1_622)"/>
<path d="M11.975 15.9627L8.375 22.7627C8.275 22.9127 8.125 23.0127 7.925 23.0127C7.875 23.0127 7.825 23.0127 7.775 23.0127C7.525 22.9627 7.375 22.7127 7.425 22.4627L7.975 18.0127H5.525C5.325 18.0127 5.175 17.9127 5.075 17.7627C4.975 17.6127 4.975 17.4127 5.075 17.2627L8.075 12.2627C8.175 12.0627 8.425 11.9627 8.625 12.0127C8.825 12.0627 8.975 12.2627 8.975 12.5127V15.2127H11.475C11.625 15.2127 11.825 15.3127 11.925 15.4627C12.025 15.6127 12.025 15.8127 11.975 15.9627Z" fill="#FFC10A"/>
<defs>
<linearGradient id="paint0_linear_1_622" x1="18" y1="3.89147" x2="12.3916" y2="9.42763" gradientUnits="userSpaceOnUse">
<stop stop-color="#FFB301"/>
<stop offset="1" stop-color="#FFC533"/>
</linearGradient>
<linearGradient id="paint1_linear_1_622" x1="9" y1="5.89147" x2="9" y2="16.8915" gradientUnits="userSpaceOnUse">
<stop stop-color="#9FC7FF"/>
<stop offset="1" stop-color="#9BC1F5"/>
</linearGradient>
<radialGradient id="paint2_radial_1_622" cx="0" cy="0" r="1" gradientUnits="userSpaceOnUse" gradientTransform="translate(6.97197 -13.4568) rotate(-90) scale(10.4787 3.34853)">
<stop stop-color="#486DA8" stop-opacity="0.4"/>
<stop offset="1" stop-color="#486DA8" stop-opacity="0"/>
</radialGradient>
</defs>
</svg>
