<svg width="21" height="22" viewBox="0 0 21 22" fill="none" xmlns="http://www.w3.org/2000/svg">
<path d="M6.508 0.367004C8.192 1.078 9.375 2.745 9.375 4.688C9.375 7.277 7.276 9.37601 4.687 9.37601C2.744 9.37601 1.077 8.194 0.366001 6.509C0.926001 6.745 1.541 6.876 2.187 6.876C4.776 6.876 6.875 4.777 6.875 2.188C6.875 1.542 6.744 0.927004 6.508 0.367004V0.367004Z" fill="url(#paint0_linear_1_506)"/>
<path d="M7.109 17.463L6.059 19.962C5.899 20.344 6.078 20.784 6.46 20.944C6.842 21.104 7.282 20.925 7.442 20.543L8.492 18.044C8.652 17.662 8.473 17.222 8.091 17.062C7.709 16.902 7.269 17.081 7.109 17.463V17.463ZM15.109 17.463L14.059 19.962C13.899 20.344 14.078 20.784 14.46 20.944C14.842 21.104 15.282 20.925 15.442 20.543L16.492 18.044C16.652 17.662 16.473 17.222 16.091 17.062C15.709 16.902 15.269 17.081 15.109 17.463ZM11.109 16.463L10.059 18.962C9.899 19.344 10.078 19.784 10.46 19.944C10.842 20.104 11.282 19.925 11.442 19.543L12.492 17.044C12.652 16.662 12.473 16.222 12.091 16.062C11.709 15.902 11.269 16.081 11.109 16.463Z" fill="#66AFEB"/>
<path d="M7 15C4.791 15 3 13.209 3 11C3 8.791 4.791 7 7 7C7.417 7 7.818 7.064 8.196 7.182C8.759 5.34 10.473 4 12.5 4C14.985 4 17 6.015 17 8.5C17 8.735 16.982 8.965 16.947 9.19C17.275 9.067 17.629 9 18 9C19.657 9 21 10.343 21 12C21 13.657 19.657 15 18 15H7Z" fill="url(#paint1_linear_1_506)"/>
<path d="M8 8.5C8 10.985 10.015 13 12.5 13C14.751 13 16.615 11.348 16.947 9.19C17.275 9.067 17.629 9 18 9C19.657 9 21 10.343 21 12C21 13.657 19.657 15 18 15H7C4.791 15 3 13.209 3 11C3 8.791 4.791 7 7 7C7.417 7 7.818 7.064 8.196 7.182C8.068 7.599 8 8.041 8 8.5Z" fill="url(#paint2_radial_1_506)"/>
<defs>
<linearGradient id="paint0_linear_1_506" x1="4.8705" y1="0.367004" x2="4.8705" y2="9.37601" gradientUnits="userSpaceOnUse">
<stop stop-color="#FFBE1D"/>
<stop offset="1" stop-color="#FFB300"/>
</linearGradient>
<linearGradient id="paint1_linear_1_506" x1="12" y1="4" x2="12" y2="15" gradientUnits="userSpaceOnUse">
<stop stop-color="#9FC7FF"/>
<stop offset="1" stop-color="#9BC1F5"/>
</linearGradient>
<radialGradient id="paint2_radial_1_506" cx="0" cy="0" r="1" gradientUnits="userSpaceOnUse" gradientTransform="translate(5.81497 -14.3483) rotate(-90) scale(10.4787 3.34853)">
<stop stop-color="#486DA8" stop-opacity="0.4"/>
<stop offset="1" stop-color="#486DA8" stop-opacity="0"/>
</radialGradient>
</defs>
</svg>
