<svg width="22" height="24" viewBox="0 0 22 24" fill="none" xmlns="http://www.w3.org/2000/svg">
<path d="M14 12C16.2091 12 18 10.2091 18 8C18 5.79086 16.2091 4 14 4C11.7909 4 10 5.79086 10 8C10 10.2091 11.7909 12 14 12Z" fill="url(#paint0_linear_1_499)"/>
<path d="M13.48 0.729993L13.74 2.20699C13.914 3.19199 12.436 3.45199 12.263 2.46699L12.003 0.989993C11.829 0.00499284 13.307 -0.255007 13.48 0.729993V0.729993ZM18.773 2.49099L17.913 3.71999C17.339 4.53899 16.111 3.67899 16.684 2.85999L17.544 1.63099C18.118 0.811993 19.346 1.67199 18.773 2.49099ZM8.492 3.22699L9.721 4.08699C10.54 4.66099 9.68 5.88899 8.861 5.31599L7.632 4.45599C6.813 3.88199 7.673 2.65399 8.492 3.22699V3.22699ZM19.141 10.683L20.37 11.543C21.189 12.117 20.329 13.345 19.51 12.772L18.281 11.912C17.462 11.338 18.322 10.11 19.141 10.683ZM21.271 7.47899L19.794 7.73899C18.809 7.91299 18.549 6.43499 19.534 6.26199L21.011 6.00199C21.996 5.82799 22.256 7.30599 21.271 7.47899Z" fill="#FFB300"/>
<path d="M4.109 19.463L3.059 21.962C2.899 22.344 3.078 22.784 3.46 22.944C3.842 23.104 4.282 22.925 4.442 22.543L5.492 20.044C5.652 19.662 5.473 19.222 5.091 19.062C4.709 18.902 4.269 19.081 4.109 19.463ZM12.109 19.463L11.059 21.962C10.899 22.344 11.078 22.784 11.46 22.944C11.842 23.104 12.282 22.925 12.442 22.543L13.492 20.044C13.652 19.662 13.473 19.222 13.091 19.062C12.709 18.902 12.269 19.081 12.109 19.463ZM8.109 18.463L7.059 20.962C6.899 21.344 7.078 21.784 7.46 21.944C7.842 22.104 8.282 21.925 8.442 21.543L9.492 19.044C9.652 18.662 9.473 18.222 9.091 18.062C8.709 17.902 8.269 18.081 8.109 18.463Z" fill="#66AFEB"/>
<path d="M4 17C1.791 17 0 15.209 0 13C0 10.791 1.791 9 4 9C4.417 9 4.818 9.064 5.196 9.182C5.759 7.34 7.473 6 9.5 6C11.985 6 14 8.015 14 10.5C14 10.735 13.982 10.965 13.947 11.19C14.275 11.067 14.629 11 15 11C16.657 11 18 12.343 18 14C18 15.657 16.657 17 15 17H4Z" fill="url(#paint1_linear_1_499)"/>
<path d="M5 10.5C5 12.985 7.015 15 9.5 15C11.751 15 13.615 13.348 13.947 11.19C14.275 11.067 14.629 11 15 11C16.657 11 18 12.343 18 14C18 15.657 16.657 17 15 17H4C1.791 17 0 15.209 0 13C0 10.791 1.791 9 4 9C4.417 9 4.818 9.064 5.196 9.182C5.068 9.599 5 10.041 5 10.5Z" fill="url(#paint2_radial_1_499)"/>
<defs>
<linearGradient id="paint0_linear_1_499" x1="18" y1="4" x2="12.3916" y2="9.53616" gradientUnits="userSpaceOnUse">
<stop stop-color="#FFB301"/>
<stop offset="1" stop-color="#FFC533"/>
</linearGradient>
<linearGradient id="paint1_linear_1_499" x1="9" y1="6" x2="9" y2="17" gradientUnits="userSpaceOnUse">
<stop stop-color="#9FC7FF"/>
<stop offset="1" stop-color="#9BC1F5"/>
</linearGradient>
<radialGradient id="paint2_radial_1_499" cx="0" cy="0" r="1" gradientUnits="userSpaceOnUse" gradientTransform="translate(5.53397 -11.3483) rotate(-90) scale(10.4787 3.34853)">
<stop stop-color="#486DA8" stop-opacity="0.4"/>
<stop offset="1" stop-color="#486DA8" stop-opacity="0"/>
</radialGradient>
</defs>
</svg>
