<svg width="21" height="21" viewBox="0 0 21 21" fill="none" xmlns="http://www.w3.org/2000/svg">
<path d="M6.508 0.367004C8.192 1.078 9.375 2.745 9.375 4.688C9.375 7.277 7.276 9.37601 4.687 9.37601C2.744 9.37601 1.077 8.194 0.366 6.509C0.926 6.745 1.541 6.876 2.187 6.876C4.776 6.876 6.875 4.777 6.875 2.188C6.875 1.542 6.744 0.927004 6.508 0.367004V0.367004Z" fill="url(#paint0_linear_1_324)"/>
<path d="M12.125 17.417L12.807 17.023C13.529 16.606 14.154 17.689 13.432 18.106L12.75 18.5L13.432 18.894C14.154 19.311 13.529 20.393 12.807 19.977L12.125 19.583V20.37C12.125 20.715 11.845 20.995 11.5 20.995C11.155 20.995 10.875 20.715 10.875 20.37V19.583L10.193 19.977C9.471 20.394 8.846 19.311 9.568 18.894L10.25 18.5L9.568 18.106C8.846 17.689 9.471 16.607 10.193 17.023L10.875 17.417V16.63C10.875 16.285 11.155 16.005 11.5 16.005C11.845 16.005 12.125 16.285 12.125 16.63V17.417Z" fill="#67C8E2"/>
<path d="M7 15C4.791 15 3 13.209 3 11C3 8.791 4.791 7 7 7C7.417 7 7.818 7.064 8.196 7.182C8.759 5.34 10.473 4 12.5 4C14.985 4 17 6.015 17 8.5C17 8.735 16.982 8.965 16.947 9.19C17.275 9.067 17.629 9 18 9C19.657 9 21 10.343 21 12C21 13.657 19.657 15 18 15H7Z" fill="url(#paint1_linear_1_324)"/>
<path d="M8 8.5C8 10.985 10.015 13 12.5 13C14.751 13 16.615 11.348 16.947 9.19C17.275 9.067 17.629 9 18 9C19.657 9 21 10.343 21 12C21 13.657 19.657 15 18 15H7C4.791 15 3 13.209 3 11C3 8.791 4.791 7 7 7C7.417 7 7.818 7.064 8.196 7.182C8.068 7.599 8 8.041 8 8.5Z" fill="url(#paint2_radial_1_324)"/>
<defs>
<linearGradient id="paint0_linear_1_324" x1="4.8705" y1="0.367004" x2="4.8705" y2="9.37601" gradientUnits="userSpaceOnUse">
<stop stop-color="#FFBE1D"/>
<stop offset="1" stop-color="#FFB300"/>
</linearGradient>
<linearGradient id="paint1_linear_1_324" x1="12" y1="4" x2="12" y2="15" gradientUnits="userSpaceOnUse">
<stop stop-color="#9FC7FF"/>
<stop offset="1" stop-color="#9BC1F5"/>
</linearGradient>
<radialGradient id="paint2_radial_1_324" cx="0" cy="0" r="1" gradientUnits="userSpaceOnUse" gradientTransform="translate(5.81497 -14.3483) rotate(-90) scale(10.4787 3.34853)">
<stop stop-color="#486DA8" stop-opacity="0.4"/>
<stop offset="1" stop-color="#486DA8" stop-opacity="0"/>
</radialGradient>
</defs>
</svg>
