<svg width="18" height="18" viewBox="0 0 18 18" fill="none" xmlns="http://www.w3.org/2000/svg">
<path d="M2.56 12.452L1.06 15.958C0.896997 16.339 1.074 16.78 1.455 16.943C1.836 17.106 2.277 16.929 2.44 16.548L3.94 13.042C4.103 12.661 3.926 12.22 3.545 12.057C3.164 11.894 2.723 12.071 2.56 12.452V12.452ZM6.56 12.452L5.06 15.958C4.897 16.339 5.074 16.78 5.455 16.943C5.836 17.106 6.277 16.929 6.44 16.548L7.94 13.042C8.103 12.661 7.926 12.22 7.545 12.057C7.164 11.894 6.723 12.071 6.56 12.452V12.452ZM10.56 12.452L9.06 15.958C8.897 16.339 9.074 16.78 9.455 16.943C9.836 17.106 10.277 16.929 10.44 16.548L11.94 13.042C12.103 12.661 11.926 12.22 11.545 12.057C11.164 11.894 10.723 12.071 10.56 12.452V12.452ZM14.56 12.452L13.06 15.958C12.897 16.339 13.074 16.78 13.455 16.943C13.836 17.106 14.277 16.929 14.44 16.548L15.94 13.042C16.103 12.661 15.926 12.22 15.545 12.057C15.164 11.894 14.723 12.071 14.56 12.452V12.452Z" fill="#66AFEB"/>
<path d="M4 11C1.791 11 0 9.209 0 7C0 4.791 1.791 3 4 3C4.417 3 4.818 3.064 5.196 3.182C5.759 1.34 7.473 0 9.5 0C11.985 0 14 2.015 14 4.5C14 4.735 13.982 4.965 13.947 5.19C14.275 5.067 14.629 5 15 5C16.657 5 18 6.343 18 8C18 9.657 16.657 11 15 11H4Z" fill="url(#paint0_linear_1_361)"/>
<path d="M5 4.5C5 6.985 7.015 9 9.5 9C11.751 9 13.615 7.348 13.947 5.19C14.275 5.067 14.629 5 15 5C16.657 5 18 6.343 18 8C18 9.657 16.657 11 15 11H4C1.791 11 0 9.209 0 7C0 4.791 1.791 3 4 3C4.417 3 4.818 3.064 5.196 3.182C5.068 3.599 5 4.041 5 4.5Z" fill="url(#paint1_radial_1_361)"/>
<defs>
<linearGradient id="paint0_linear_1_361" x1="9" y1="0" x2="9" y2="11" gradientUnits="userSpaceOnUse">
<stop stop-color="#9FC7FF"/>
<stop offset="1" stop-color="#9BC1F5"/>
</linearGradient>
<radialGradient id="paint1_radial_1_361" cx="0" cy="0" r="1" gradientUnits="userSpaceOnUse" gradientTransform="translate(2.37697 -15.3483) rotate(-90) scale(10.4787 3.34853)">
<stop stop-color="#486DA8" stop-opacity="0.4"/>
<stop offset="1" stop-color="#486DA8" stop-opacity="0"/>
</radialGradient>
</defs>
</svg>
