<svg width="18" height="18" viewBox="0 0 18 18" fill="none" xmlns="http://www.w3.org/2000/svg">
<path d="M13.125 14.417L13.807 14.023C14.529 13.606 15.154 14.689 14.432 15.106L13.75 15.5L14.432 15.894C15.154 16.311 14.529 17.393 13.807 16.977L13.125 16.583V17.37C13.125 17.715 12.845 17.995 12.5 17.995C12.155 17.995 11.875 17.715 11.875 17.37V16.583L11.193 16.977C10.471 17.394 9.846 16.311 10.568 15.894L11.25 15.5L10.568 15.106C9.846 14.689 10.471 13.607 11.193 14.023L11.875 14.417V13.63C11.875 13.285 12.155 13.005 12.5 13.005C12.845 13.005 13.125 13.285 13.125 13.63V14.417Z" fill="#67C8E2"/>
<path d="M2.109 13.463L1.059 15.962C0.899 16.344 1.078 16.784 1.46 16.944C1.842 17.104 2.282 16.925 2.442 16.543L3.492 14.044C3.652 13.662 3.473 13.222 3.091 13.062C2.709 12.902 2.269 13.081 2.109 13.463ZM7.109 12.463L6.059 14.962C5.899 15.344 6.078 15.784 6.46 15.944C6.842 16.104 7.282 15.925 7.442 15.543L8.492 13.044C8.652 12.662 8.473 12.222 8.091 12.062C7.709 11.902 7.269 12.081 7.109 12.463Z" fill="#66AFEB"/>
<path d="M4 11C1.791 11 0 9.209 0 7C0 4.791 1.791 3 4 3C4.417 3 4.818 3.064 5.196 3.182C5.759 1.34 7.473 0 9.5 0C11.985 0 14 2.015 14 4.5C14 4.735 13.982 4.965 13.947 5.19C14.275 5.067 14.629 5 15 5C16.657 5 18 6.343 18 8C18 9.657 16.657 11 15 11H4Z" fill="url(#paint0_linear_1_231)"/>
<path d="M5 4.5C5 6.985 7.015 9 9.5 9C11.751 9 13.615 7.348 13.947 5.19C14.275 5.067 14.629 5 15 5C16.657 5 18 6.343 18 8C18 9.657 16.657 11 15 11H4C1.791 11 0 9.209 0 7C0 4.791 1.791 3 4 3C4.417 3 4.818 3.064 5.196 3.182C5.068 3.599 5 4.041 5 4.5Z" fill="url(#paint1_radial_1_231)"/>
<defs>
<linearGradient id="paint0_linear_1_231" x1="9" y1="0" x2="9" y2="11" gradientUnits="userSpaceOnUse">
<stop stop-color="#9FC7FF"/>
<stop offset="1" stop-color="#9BC1F5"/>
</linearGradient>
<radialGradient id="paint1_radial_1_231" cx="0" cy="0" r="1" gradientUnits="userSpaceOnUse" gradientTransform="translate(2.37697 -15.3483) rotate(-90) scale(10.4787 3.34853)">
<stop stop-color="#486DA8" stop-opacity="0.4"/>
<stop offset="1" stop-color="#486DA8" stop-opacity="0"/>
</radialGradient>
</defs>
</svg>
