<svg width="18" height="19" viewBox="0 0 18 19" fill="none" xmlns="http://www.w3.org/2000/svg">
<path d="M2.8774 15.412L3.5594 15.018C4.2814 14.601 4.9064 15.684 4.1844 16.101L3.5024 16.495L4.1844 16.889C4.9064 17.306 4.2814 18.388 3.5594 17.972L2.8774 17.578V18.365C2.8774 18.71 2.5974 18.99 2.2524 18.99C1.9074 18.99 1.6274 18.71 1.6274 18.365V17.578L0.945397 17.972C0.223397 18.389 -0.401603 17.306 0.320397 16.889L1.0024 16.495L0.320397 16.101C-0.401603 15.684 0.223397 14.602 0.945397 15.018L1.6274 15.412V14.625C1.6274 14.28 1.9074 14 2.2524 14C2.5974 14 2.8774 14.28 2.8774 14.625V15.412Z" fill="#67C8E2"/>
<path d="M9.8774 13.412L10.5594 13.018C11.2814 12.601 11.9064 13.684 11.1844 14.101L10.5024 14.495L11.1844 14.889C11.9064 15.306 11.2814 16.388 10.5594 15.972L9.8774 15.578V16.365C9.8774 16.71 9.5974 16.99 9.2524 16.99C8.9074 16.99 8.6274 16.71 8.6274 16.365V15.578L7.9454 15.972C7.2234 16.389 6.5984 15.306 7.3204 14.889L8.0024 14.495L7.3204 14.101C6.5984 13.684 7.2234 12.602 7.9454 13.018L8.6274 13.412V12.625C8.6274 12.28 8.9074 12 9.2524 12C9.5974 12 9.8774 12.28 9.8774 12.625V13.412Z" fill="#67C8E2"/>
<path d="M15.8774 15.412L16.5594 15.018C17.2814 14.601 17.9064 15.684 17.1844 16.101L16.5024 16.495L17.1844 16.889C17.9064 17.306 17.2814 18.388 16.5594 17.972L15.8774 17.578V18.365C15.8774 18.71 15.5974 18.99 15.2524 18.99C14.9074 18.99 14.6274 18.71 14.6274 18.365V17.578L13.9454 17.972C13.2234 18.389 12.5984 17.306 13.3204 16.889L14.0024 16.495L13.3204 16.101C12.5984 15.684 13.2234 14.602 13.9454 15.018L14.6274 15.412V14.625C14.6274 14.28 14.9074 14 15.2524 14C15.5974 14 15.8774 14.28 15.8774 14.625V15.412Z" fill="#67C8E2"/>
<path d="M4 11C1.791 11 0 9.209 0 7C0 4.791 1.791 3 4 3C4.417 3 4.818 3.064 5.196 3.182C5.759 1.34 7.473 0 9.5 0C11.985 0 14 2.015 14 4.5C14 4.735 13.982 4.965 13.947 5.19C14.275 5.067 14.629 5 15 5C16.657 5 18 6.343 18 8C18 9.657 16.657 11 15 11H4Z" fill="url(#paint0_linear_1_226)"/>
<path d="M5 4.5C5 6.985 7.015 9 9.5 9C11.751 9 13.615 7.348 13.947 5.19C14.275 5.067 14.629 5 15 5C16.657 5 18 6.343 18 8C18 9.657 16.657 11 15 11H4C1.791 11 0 9.209 0 7C0 4.791 1.791 3 4 3C4.417 3 4.818 3.064 5.196 3.182C5.068 3.599 5 4.041 5 4.5Z" fill="url(#paint1_radial_1_226)"/>
<defs>
<linearGradient id="paint0_linear_1_226" x1="9" y1="0" x2="9" y2="11" gradientUnits="userSpaceOnUse">
<stop stop-color="#9FC7FF"/>
<stop offset="1" stop-color="#9BC1F5"/>
</linearGradient>
<radialGradient id="paint1_radial_1_226" cx="0" cy="0" r="1" gradientUnits="userSpaceOnUse" gradientTransform="translate(3.09597 -16.3483) rotate(-90) scale(10.4787 3.34853)">
<stop stop-color="#486DA8" stop-opacity="0.4"/>
<stop offset="1" stop-color="#486DA8" stop-opacity="0"/>
</radialGradient>
</defs>
</svg>
