<svg width="18" height="18" viewBox="0 0 18 18" fill="none" xmlns="http://www.w3.org/2000/svg">
<path opacity="0.2" d="M4 11C6.20914 11 8 9.20914 8 7C8 4.79086 6.20914 3 4 3C1.79086 3 0 4.79086 0 7C0 9.20914 1.79086 11 4 11Z" fill="url(#paint0_radial_1_413)"/>
<path d="M2.5606 12.4556L1.0606 15.9616C0.8976 16.3426 1.0746 16.7836 1.4556 16.9466C1.8366 17.1096 2.2776 16.9326 2.4406 16.5516L3.9406 13.0456C4.1036 12.6646 3.9266 12.2236 3.5456 12.0606C3.1646 11.8976 2.7236 12.0746 2.5606 12.4556ZM6.5606 12.4556L5.0606 15.9616C4.8976 16.3426 5.0746 16.7836 5.4556 16.9466C5.8366 17.1096 6.2776 16.9326 6.4406 16.5516L7.9406 13.0456C8.1036 12.6646 7.9266 12.2236 7.5456 12.0606C7.1646 11.8976 6.7236 12.0746 6.5606 12.4556ZM10.5606 12.4556L9.0606 15.9616C8.8976 16.3426 9.0746 16.7836 9.4556 16.9466C9.8366 17.1096 10.2776 16.9326 10.4406 16.5516L11.9406 13.0456C12.1036 12.6646 11.9266 12.2236 11.5456 12.0606C11.1646 11.8976 10.7236 12.0746 10.5606 12.4556ZM14.5606 12.4556L13.0606 15.9616C12.8976 16.3426 13.0746 16.7836 13.4556 16.9466C13.8366 17.1096 14.2776 16.9326 14.4406 16.5516L15.9406 13.0456C16.1036 12.6646 15.9266 12.2236 15.5456 12.0606C15.1646 11.8976 14.7236 12.0746 14.5606 12.4556Z" fill="#66AFEB"/>
<path d="M4 11C1.791 11 0 9.209 0 7C0 4.791 1.791 3 4 3C4.417 3 4.818 3.064 5.196 3.182C5.759 1.34 7.473 0 9.5 0C11.985 0 14 2.015 14 4.5C14 4.735 13.982 4.965 13.947 5.19C14.275 5.067 14.629 5 15 5C16.657 5 18 6.343 18 8C18 9.657 16.657 11 15 11H4Z" fill="url(#paint1_linear_1_413)"/>
<path d="M5 4.5C5 6.985 7.015 9 9.5 9C11.751 9 13.615 7.348 13.947 5.19C14.275 5.067 14.629 5 15 5C16.657 5 18 6.343 18 8C18 9.657 16.657 11 15 11H4C1.791 11 0 9.209 0 7C0 4.791 1.791 3 4 3C4.417 3 4.818 3.064 5.196 3.182C5.068 3.599 5 4.041 5 4.5Z" fill="url(#paint2_radial_1_413)"/>
<path d="M11.975 9.96274L8.375 16.7627C8.275 16.9127 8.125 17.0127 7.925 17.0127C7.875 17.0127 7.825 17.0127 7.775 17.0127C7.525 16.9627 7.375 16.7127 7.425 16.4627L7.975 12.0127H5.525C5.325 12.0127 5.175 11.9127 5.075 11.7627C4.975 11.6127 4.975 11.4127 5.075 11.2627L8.075 6.26274C8.175 6.06274 8.425 5.96274 8.625 6.01274C8.825 6.06274 8.975 6.26274 8.975 6.51274V9.21274H11.475C11.625 9.21274 11.825 9.31274 11.925 9.46274C12.025 9.61274 12.025 9.81274 11.975 9.96274Z" fill="#FFC10A"/>
<defs>
<radialGradient id="paint0_radial_1_413" cx="0" cy="0" r="1" gradientUnits="userSpaceOnUse" gradientTransform="translate(7.056 3.9052) scale(4)">
<stop stop-color="#9699C7"/>
<stop offset="1" stop-color="#9499C9" stop-opacity="0"/>
</radialGradient>
<linearGradient id="paint1_linear_1_413" x1="9" y1="0" x2="9" y2="11" gradientUnits="userSpaceOnUse">
<stop stop-color="#9FC7FF"/>
<stop offset="1" stop-color="#9BC1F5"/>
</linearGradient>
<radialGradient id="paint2_radial_1_413" cx="0" cy="0" r="1" gradientUnits="userSpaceOnUse" gradientTransform="translate(2.81497 -18.3483) rotate(-90) scale(10.4787 3.34853)">
<stop stop-color="#486DA8" stop-opacity="0.4"/>
<stop offset="1" stop-color="#486DA8" stop-opacity="0"/>
</radialGradient>
</defs>
</svg>
