<svg width="25" height="22" viewBox="0 0 25 22" fill="none" xmlns="http://www.w3.org/2000/svg">
<path d="M3.26108 5.14853H7.16572C7.56302 5.14837 7.95489 5.05627 8.31065 4.87941C8.66641 4.70256 8.97641 4.44576 9.21638 4.12912C9.45635 3.81248 9.61977 3.44459 9.69385 3.05426C9.76793 2.66393 9.75066 2.26176 9.64339 1.87921C9.53612 1.49667 9.34176 1.14415 9.07553 0.849249C8.8093 0.554347 8.47843 0.325069 8.10881 0.179365C7.7392 0.0336608 7.34087 -0.0245147 6.94503 0.00939296C6.54918 0.0433007 6.16655 0.168371 5.8271 0.374813C5.71452 0.447746 5.63485 0.561739 5.60505 0.692527C5.57524 0.823316 5.59766 0.960572 5.66753 1.07508C5.7374 1.18959 5.8492 1.27231 5.97914 1.30563C6.10907 1.33895 6.24688 1.32025 6.36324 1.2535C6.56696 1.12998 6.79649 1.05527 7.03389 1.0352C7.27128 1.01513 7.5101 1.05025 7.73167 1.13781C7.95324 1.22537 8.15154 1.36299 8.31109 1.53993C8.47063 1.71686 8.58708 1.9283 8.65133 2.15771C8.71558 2.38713 8.72589 2.62829 8.68146 2.86235C8.63702 3.09641 8.53904 3.31702 8.39518 3.50693C8.25132 3.69683 8.06548 3.85088 7.8522 3.95703C7.63891 4.06318 7.40396 4.11856 7.16572 4.11882L3.26108 4.11951C3.12453 4.11951 2.99357 4.17375 2.89702 4.27031C2.80047 4.36686 2.74622 4.49781 2.74622 4.63436C2.74622 4.77091 2.80047 4.90186 2.89702 4.99842C2.99357 5.09497 3.12453 5.14921 3.26108 5.14921V5.14853ZM0.515196 7.55117H7.35656C7.51546 7.5512 7.67221 7.588 7.81452 7.6587C7.95683 7.7294 8.08085 7.83207 8.17687 7.95869C8.27289 8.08531 8.3383 8.23243 8.36798 8.38854C8.39766 8.54465 8.39081 8.70551 8.34796 8.85853C8.30511 9.01155 8.22743 9.15258 8.121 9.27057C8.01456 9.38857 7.88226 9.48033 7.73445 9.53867C7.58665 9.59701 7.42734 9.62036 7.26901 9.60687C7.11067 9.59338 6.95761 9.54343 6.8218 9.46093C6.70529 9.39265 6.56661 9.37289 6.43566 9.40589C6.30471 9.43889 6.19197 9.52203 6.12174 9.63737C6.05151 9.75271 6.0294 9.89104 6.06019 10.0225C6.09099 10.154 6.17221 10.2681 6.28635 10.3403C6.55791 10.5055 6.86402 10.6056 7.18071 10.6328C7.49741 10.6599 7.81609 10.6134 8.11181 10.4969C8.40753 10.3803 8.67226 10.1969 8.88527 9.96095C9.09827 9.72502 9.25377 9.44299 9.3396 9.13694C9.42542 8.83089 9.43924 8.50912 9.37997 8.19684C9.32069 7.88456 9.18993 7.59023 8.99794 7.33691C8.80594 7.0836 8.55791 6.87816 8.27327 6.73669C7.98863 6.59522 7.6751 6.52156 7.35724 6.52147H0.51451C0.446898 6.52151 0.379958 6.53487 0.31751 6.56079C0.255063 6.58671 0.198331 6.62467 0.150554 6.67251C0.102778 6.72035 0.0648917 6.77713 0.0390596 6.83961C0.0132274 6.90209 -4.49599e-05 6.96905 1.14423e-07 7.03666C4.51887e-05 7.10428 0.0134068 7.17122 0.0393222 7.23366C0.0652377 7.29611 0.103199 7.35284 0.15104 7.40062C0.19888 7.4484 0.255662 7.48628 0.318144 7.51211C0.380626 7.53795 0.447585 7.55122 0.515196 7.55117V7.55117ZM10.5837 6.17823H12.1289C12.4468 6.17815 12.7603 6.10448 13.0449 5.96301C13.3296 5.82154 13.5776 5.61611 13.7696 5.36279C13.9616 5.10947 14.0923 4.81515 14.1516 4.50286C14.2109 4.19058 14.1971 3.86882 14.1113 3.56276C14.0254 3.25671 13.8699 2.97468 13.6569 2.73875C13.4439 2.50282 13.1792 2.3194 12.8835 2.20285C12.5877 2.0863 12.2691 2.03978 11.9524 2.06694C11.6357 2.0941 11.3296 2.1942 11.058 2.3594C10.9454 2.43233 10.8658 2.54632 10.836 2.67711C10.8061 2.8079 10.8286 2.94516 10.8984 3.05967C10.9683 3.17418 11.0801 3.25689 11.21 3.29022C11.34 3.32354 11.4778 3.30483 11.5941 3.23808C11.73 3.15558 11.883 3.10563 12.0413 3.09214C12.1997 3.07866 12.359 3.102 12.5068 3.16034C12.6546 3.21869 12.7869 3.31045 12.8933 3.42844C12.9998 3.54643 13.0775 3.68746 13.1203 3.84048C13.1632 3.9935 13.17 4.15436 13.1403 4.31047C13.1106 4.46658 13.0452 4.61371 12.9492 4.74032C12.8532 4.86694 12.7292 4.96962 12.5869 5.04032C12.4446 5.11101 12.2878 5.14782 12.1289 5.14784L10.5837 5.14853C10.4471 5.14853 10.3162 5.20277 10.2196 5.29932C10.123 5.39588 10.0688 5.52683 10.0688 5.66338C10.0688 5.79993 10.123 5.93088 10.2196 6.02744C10.3162 6.12399 10.4471 6.17823 10.5837 6.17823V6.17823Z" fill="#73A0CA"/>
<path d="M14.0733 7.20794H17.978C18.3753 7.20778 18.7671 7.11568 19.1229 6.93882C19.4787 6.76197 19.7887 6.50517 20.0286 6.18853C20.2686 5.87189 20.432 5.504 20.5061 5.11367C20.5802 4.72334 20.5629 4.32117 20.4556 3.93862C20.3484 3.55608 20.154 3.20356 19.8878 2.90866C19.6216 2.61376 19.2907 2.38448 18.9211 2.23878C18.5514 2.09307 18.1531 2.0349 17.7573 2.0688C17.3614 2.10271 16.9788 2.22778 16.6394 2.43422C16.5268 2.50716 16.4471 2.62115 16.4173 2.75194C16.3875 2.88273 16.4099 3.01998 16.4798 3.13449C16.5496 3.249 16.6614 3.33172 16.7914 3.36504C16.9213 3.39836 17.0591 3.37966 17.1755 3.31291C17.3792 3.18939 17.6087 3.11468 17.8461 3.09461C18.0835 3.07454 18.3223 3.10966 18.5439 3.19722C18.7655 3.28478 18.9638 3.4224 19.1233 3.59934C19.2829 3.77627 19.3993 3.98771 19.4636 4.21712C19.5278 4.44654 19.5381 4.6877 19.4937 4.92176C19.4493 5.15582 19.3513 5.37643 19.2074 5.56634C19.0636 5.75624 18.8777 5.91029 18.6644 6.01644C18.4512 6.12259 18.2162 6.17797 17.978 6.17823L14.0733 6.17892C13.9368 6.17892 13.8058 6.23316 13.7093 6.32972C13.6127 6.42627 13.5585 6.55722 13.5585 6.69377C13.5585 6.83032 13.6127 6.96127 13.7093 7.05783C13.8058 7.15438 13.9368 7.20862 14.0733 7.20862V7.20794ZM11.3274 9.61058H18.1688C18.3277 9.61061 18.4845 9.64741 18.6268 9.71811C18.7691 9.78881 18.8931 9.89148 18.9891 10.0181C19.0851 10.1447 19.1505 10.2918 19.1802 10.448C19.2099 10.6041 19.2031 10.7649 19.1602 10.9179C19.1174 11.071 19.0397 11.212 18.9332 11.33C18.8268 11.448 18.6945 11.5397 18.5467 11.5981C18.3989 11.6564 18.2396 11.6798 18.0813 11.6663C17.9229 11.6528 17.7699 11.6028 17.634 11.5203C17.5175 11.4521 17.3789 11.4323 17.2479 11.4653C17.117 11.4983 17.0042 11.5814 16.934 11.6968C16.8638 11.8121 16.8417 11.9504 16.8724 12.0819C16.9032 12.2134 16.9845 12.3275 17.0986 12.3997C17.3702 12.5649 17.6763 12.665 17.993 12.6922C18.3097 12.7193 18.6283 12.6728 18.9241 12.5563C19.2198 12.4397 19.4845 12.2563 19.6975 12.0204C19.9105 11.7844 20.066 11.5024 20.1518 11.1963C20.2377 10.8903 20.2515 10.5685 20.1922 10.2562C20.1329 9.94397 20.0022 9.64964 19.8102 9.39632C19.6182 9.14301 19.3702 8.93757 19.0855 8.7961C18.8009 8.65463 18.4874 8.58097 18.1695 8.58088H11.3268C11.2591 8.58092 11.1922 8.59428 11.1298 8.6202C11.0673 8.64612 11.0106 8.68408 10.9628 8.73192C10.915 8.77976 10.8771 8.83654 10.8513 8.89902C10.8255 8.9615 10.8122 9.02846 10.8122 9.09607C10.8123 9.16369 10.8257 9.23063 10.8516 9.29307C10.8775 9.35552 10.9154 9.41225 10.9633 9.46003C11.0111 9.50781 11.0679 9.54569 11.1304 9.57152C11.1929 9.59736 11.2598 9.61063 11.3274 9.61058ZM21.3959 8.23764H22.9411C23.259 8.23756 23.5725 8.16389 23.8572 8.02242C24.1418 7.88095 24.3898 7.67552 24.5818 7.4222C24.7738 7.16888 24.9046 6.87456 24.9639 6.56227C25.0231 6.24999 25.0093 5.92823 24.9235 5.62217C24.8377 5.31612 24.6822 5.03409 24.4692 4.79816C24.2562 4.56223 23.9914 4.37881 23.6957 4.26226C23.4 4.14571 23.0813 4.09919 22.7646 4.12635C22.4479 4.15351 22.1418 4.25361 21.8703 4.41881C21.7577 4.49174 21.678 4.60573 21.6482 4.73652C21.6184 4.86731 21.6408 5.00457 21.7107 5.11908C21.7806 5.23359 21.8924 5.3163 22.0223 5.34963C22.1522 5.38295 22.29 5.36424 22.4064 5.29749C22.5422 5.21499 22.6953 5.16504 22.8536 5.15156C23.0119 5.13807 23.1712 5.16141 23.319 5.21975C23.4669 5.2781 23.5992 5.36986 23.7056 5.48785C23.812 5.60584 23.8897 5.74687 23.9326 5.89989C23.9754 6.05291 23.9823 6.21377 23.9526 6.36988C23.9229 6.52599 23.8575 6.67312 23.7615 6.79973C23.6654 6.92635 23.5414 7.02903 23.3991 7.09973C23.2568 7.17042 23.1001 7.20723 22.9411 7.20725L21.3959 7.20794C21.2594 7.20794 21.1284 7.26218 21.0318 7.35873C20.9353 7.45529 20.8811 7.58624 20.8811 7.72279C20.8811 7.85934 20.9353 7.99029 21.0318 8.08685C21.1284 8.1834 21.2594 8.23764 21.3959 8.23764Z" fill="#73A0CA"/>
<path d="M6.26107 16.1485H10.1657C10.563 16.1484 10.9549 16.0563 11.3106 15.8794C11.6664 15.7026 11.9764 15.4458 12.2164 15.1291C12.4563 14.8125 12.6198 14.4446 12.6938 14.0543C12.7679 13.6639 12.7506 13.2618 12.6434 12.8792C12.5361 12.4967 12.3418 12.1441 12.0755 11.8492C11.8093 11.5543 11.4784 11.3251 11.1088 11.1794C10.7392 11.0337 10.3409 10.9755 9.94502 11.0094C9.54917 11.0433 9.16654 11.1684 8.82709 11.3748C8.71451 11.4477 8.63484 11.5617 8.60504 11.6925C8.57524 11.8233 8.59765 11.9606 8.66752 12.0751C8.73739 12.1896 8.84919 12.2723 8.97913 12.3056C9.10906 12.3389 9.24687 12.3202 9.36323 12.2535C9.56695 12.13 9.79648 12.0553 10.0339 12.0352C10.2713 12.0151 10.5101 12.0502 10.7317 12.1378C10.9532 12.2254 11.1515 12.363 11.3111 12.5399C11.4706 12.7169 11.5871 12.9283 11.6513 13.1577C11.7156 13.3871 11.7259 13.6283 11.6814 13.8623C11.637 14.0964 11.539 14.317 11.3952 14.5069C11.2513 14.6968 11.0655 14.8509 10.8522 14.957C10.6389 15.0632 10.404 15.1186 10.1657 15.1188L6.26107 15.1195C6.12452 15.1195 5.99357 15.1737 5.89701 15.2703C5.80046 15.3669 5.74622 15.4978 5.74622 15.6344C5.74622 15.7709 5.80046 15.9019 5.89701 15.9984C5.99357 16.095 6.12452 16.1492 6.26107 16.1492V16.1485ZM3.51519 18.5512H10.3565C10.5155 18.5512 10.6722 18.588 10.8145 18.6587C10.9568 18.7294 11.0808 18.8321 11.1769 18.9587C11.2729 19.0853 11.3383 19.2324 11.368 19.3885C11.3977 19.5446 11.3908 19.7055 11.348 19.8585C11.3051 20.0115 11.2274 20.1526 11.121 20.2706C11.0146 20.3886 10.8823 20.4803 10.7344 20.5387C10.5866 20.597 10.4273 20.6204 10.269 20.6069C10.1107 20.5934 9.9576 20.5434 9.82179 20.4609C9.70528 20.3926 9.5666 20.3729 9.43565 20.4059C9.3047 20.4389 9.19196 20.522 9.12173 20.6374C9.0515 20.7527 9.02939 20.891 9.06019 21.0225C9.09098 21.154 9.1722 21.2681 9.28634 21.3403C9.5579 21.5055 9.86401 21.6056 10.1807 21.6328C10.4974 21.6599 10.8161 21.6134 11.1118 21.4968C11.4075 21.3803 11.6723 21.1969 11.8853 20.9609C12.0983 20.725 12.2538 20.443 12.3396 20.1369C12.4254 19.8309 12.4392 19.5091 12.38 19.1968C12.3207 18.8846 12.1899 18.5902 11.9979 18.3369C11.8059 18.0836 11.5579 17.8782 11.2733 17.7367C10.9886 17.5952 10.6751 17.5216 10.3572 17.5215H3.5145C3.44689 17.5215 3.37995 17.5349 3.3175 17.5608C3.25505 17.5867 3.19832 17.6247 3.15055 17.6725C3.10277 17.7203 3.06488 17.7771 3.03905 17.8396C3.01322 17.9021 2.99995 17.969 2.99999 18.0367C3.00004 18.1043 3.0134 18.1712 3.03931 18.2337C3.06523 18.2961 3.10319 18.3528 3.15103 18.4006C3.19887 18.4484 3.25565 18.4863 3.31814 18.5121C3.38062 18.5379 3.44758 18.5512 3.51519 18.5512ZM13.5836 17.1782H15.1289C15.4467 17.1781 15.7603 17.1045 16.0449 16.963C16.3296 16.8215 16.5776 16.6161 16.7696 16.3628C16.9616 16.1095 17.0923 15.8151 17.1516 15.5029C17.2109 15.1906 17.1971 14.8688 17.1112 14.5628C17.0254 14.2567 16.8699 13.9747 16.6569 13.7387C16.4439 13.5028 16.1792 13.3194 15.8835 13.2028C15.5877 13.0863 15.2691 13.0398 14.9524 13.0669C14.6357 13.0941 14.3296 13.1942 14.058 13.3594C13.9454 13.4323 13.8657 13.5463 13.8359 13.6771C13.8061 13.8079 13.8286 13.9452 13.8984 14.0597C13.9683 14.1742 14.0801 14.2569 14.21 14.2902C14.34 14.3235 14.4778 14.3048 14.5941 14.2381C14.7299 14.1556 14.883 14.1056 15.0413 14.0921C15.1997 14.0787 15.359 14.102 15.5068 14.1603C15.6546 14.2187 15.7869 14.3104 15.8933 14.4284C15.9998 14.5464 16.0774 14.6875 16.1203 14.8405C16.1631 14.9935 16.17 15.1544 16.1403 15.3105C16.1106 15.4666 16.0452 15.6137 15.9492 15.7403C15.8532 15.8669 15.7292 15.9696 15.5869 16.0403C15.4445 16.111 15.2878 16.1478 15.1289 16.1478L13.5836 16.1485C13.4471 16.1485 13.3161 16.2028 13.2196 16.2993C13.123 16.3959 13.0688 16.5268 13.0688 16.6634C13.0688 16.7999 13.123 16.9309 13.2196 17.0274C13.3161 17.124 13.4471 17.1782 13.5836 17.1782Z" fill="#73A0CA"/>
</svg>
