<svg width="20" height="20" viewBox="0 0 20 22" fill="#402c58" xmlns="http://www.w3.org/2000/svg">
<path d="M5.00001 7.5H10.688C11.2668 7.49978 11.8376 7.3656 12.3559 7.10797C12.8741 6.85034 13.3257 6.47625 13.6753 6.015C14.0248 5.55374 14.2629 5.01783 14.3708 4.44923C14.4787 3.88063 14.4536 3.29476 14.2973 2.7375C14.141 2.18024 13.8579 1.66672 13.4701 1.23712C13.0823 0.807533 12.6003 0.473537 12.0618 0.261286C11.5234 0.0490346 10.9432 -0.0357113 10.3665 0.013683C9.78988 0.0630773 9.2325 0.245271 8.73801 0.546C8.57401 0.652244 8.45795 0.8183 8.41454 1.00882C8.37112 1.19935 8.40378 1.39929 8.50556 1.5661C8.60734 1.73291 8.7702 1.85341 8.95948 1.90195C9.14876 1.95049 9.34952 1.92324 9.51901 1.826C9.81578 1.64607 10.1501 1.53724 10.496 1.508C10.8418 1.47876 11.1897 1.52992 11.5124 1.65747C11.8352 1.78502 12.1241 1.98551 12.3565 2.24325C12.5889 2.50099 12.7585 2.80901 12.8521 3.1432C12.9457 3.47739 12.9608 3.82871 12.896 4.16967C12.8313 4.51063 12.6886 4.832 12.479 5.10864C12.2694 5.38527 11.9987 5.60968 11.688 5.76432C11.3773 5.91895 11.0351 5.99961 10.688 6L5.00001 6.001C4.8011 6.001 4.61033 6.08002 4.46968 6.22067C4.32903 6.36132 4.25001 6.55209 4.25001 6.751C4.25001 6.94991 4.32903 7.14068 4.46968 7.28133C4.61033 7.42198 4.8011 7.501 5.00001 7.501V7.5ZM1.00001 11H10.966C11.1975 11 11.4258 11.0536 11.6331 11.1566C11.8405 11.2596 12.0211 11.4092 12.161 11.5936C12.3009 11.7781 12.3961 11.9924 12.4394 12.2198C12.4826 12.4472 12.4726 12.6816 12.4102 12.9045C12.3478 13.1274 12.2346 13.3328 12.0796 13.5047C11.9245 13.6766 11.7318 13.8103 11.5165 13.8952C11.3012 13.9802 11.0691 14.0142 10.8385 13.9946C10.6078 13.9749 10.3849 13.9022 10.187 13.782C10.0173 13.6825 9.81527 13.6537 9.62452 13.7018C9.43376 13.7499 9.26953 13.871 9.16722 14.039C9.06491 14.207 9.03271 14.4085 9.07756 14.6001C9.12242 14.7916 9.24073 14.9579 9.40701 15.063C9.8026 15.3036 10.2485 15.4495 10.7099 15.489C11.1712 15.5286 11.6354 15.4608 12.0662 15.291C12.497 15.1213 12.8826 14.8541 13.1929 14.5104C13.5032 14.1667 13.7297 13.7559 13.8548 13.31C13.9798 12.8642 13.9999 12.3955 13.9136 11.9406C13.8272 11.4856 13.6367 11.0569 13.3571 10.6879C13.0774 10.3189 12.716 10.0196 12.3014 9.81352C11.8868 9.60743 11.43 9.50013 10.967 9.5H0.999012C0.90052 9.50007 0.803006 9.51953 0.712037 9.55728C0.621068 9.59503 0.538426 9.65033 0.468828 9.72002C0.399231 9.78971 0.344041 9.87243 0.306411 9.96345C0.26878 10.0545 0.249446 10.152 0.249512 10.2505C0.249578 10.349 0.269042 10.4465 0.306793 10.5375C0.344545 10.6284 0.399845 10.7111 0.469535 10.7807C0.539226 10.8503 0.621942 10.9055 0.712961 10.9431C0.803981 10.9807 0.90152 11.0001 1.00001 11ZM15.667 9H17.918C18.381 8.99987 18.8378 8.89257 19.2524 8.68648C19.667 8.4804 20.0284 8.18113 20.3081 7.81212C20.5877 7.4431 20.7782 7.01435 20.8646 6.55944C20.9509 6.10453 20.9308 5.63581 20.8058 5.18997C20.6807 4.74414 20.4542 4.3333 20.1439 3.98961C19.8336 3.64593 19.448 3.37874 19.0172 3.20895C18.5864 3.03917 18.1222 2.97141 17.6609 3.01097C17.1995 3.05053 16.7536 3.19635 16.358 3.437C16.194 3.54324 16.078 3.7093 16.0345 3.89982C15.9911 4.09035 16.0238 4.29029 16.1256 4.4571C16.2273 4.62391 16.3902 4.74441 16.5795 4.79295C16.7688 4.84149 16.9695 4.81424 17.139 4.717C17.3369 4.59682 17.5598 4.52406 17.7905 4.50441C18.0211 4.48477 18.2532 4.51877 18.4685 4.60376C18.6838 4.68875 18.8765 4.82242 19.0316 4.9943C19.1866 5.16619 19.2998 5.37163 19.3622 5.59454C19.4246 5.81744 19.4346 6.05178 19.3914 6.27919C19.3481 6.50659 19.2529 6.72091 19.113 6.90536C18.9731 7.0898 18.7925 7.23938 18.5851 7.34236C18.3778 7.44535 18.1495 7.49896 17.918 7.499L15.667 7.5C15.4681 7.5 15.2773 7.57902 15.1367 7.71967C14.996 7.86032 14.917 8.05109 14.917 8.25C14.917 8.44891 14.996 8.63968 15.1367 8.78033C15.2773 8.92098 15.4681 9 15.667 9Z"/>
</svg>
